<?xml version="1.0" standalone="no"?>
<!DOCTYPE svg PUBLIC "-//W3C//DTD SVG 20010904//EN"
 "http://www.w3.org/TR/2001/REC-SVG-20010904/DTD/svg10.dtd">
<svg version="1.0" xmlns="http://www.w3.org/2000/svg"
 width="700.000000pt" height="700.000000pt" viewBox="0 0 700.000000 700.000000"
 preserveAspectRatio="xMidYMid meet">
<metadata>
Created by potrace 1.11, written by Peter Selinger 2001-2013
</metadata>
<g transform="translate(0.000000,700.000000) scale(0.100000,-0.100000)"
fill="#000000" stroke="none">
<path d="M2684 6332 c6 -9 3 -12 -10 -10 -11 2 -18 -2 -17 -9 3 -14 -20 -11
-39 5 -12 9 -15 9 -15 -3 0 -8 5 -11 10 -8 6 3 7 1 3 -6 -6 -9 -11 -9 -24 1
-13 11 -14 11 -8 -1 6 -9 5 -12 -5 -9 -8 3 -20 -2 -27 -11 -11 -13 -12 -13 -7
-1 4 8 -3 3 -14 -12 -15 -18 -28 -24 -41 -21 -13 3 -20 0 -20 -8 0 -9 -3 -10
-8 -4 -7 11 -84 16 -77 5 2 -3 -5 -7 -16 -7 -10 -1 -19 3 -19 8 0 6 6 7 13 3
8 -5 8 -2 -2 9 -14 18 -22 22 -20 10 3 -20 -3 -23 -21 -13 -11 6 -20 7 -19 3
3 -20 -2 -27 -11 -13 -9 13 -10 13 -10 0 0 -13 -1 -13 -11 0 -9 12 -10 11 -6
-8 4 -15 1 -20 -6 -15 -19 12 -38 12 -30 0 4 -6 0 -8 -10 -4 -16 6 -44 -27
-39 -46 1 -5 -2 -6 -7 -3 -5 4 -12 -3 -16 -14 -4 -11 -11 -18 -16 -15 -5 4 -9
-3 -9 -15 0 -12 -4 -19 -8 -16 -5 3 -9 -1 -9 -9 0 -8 4 -12 8 -9 5 3 1 -9 -9
-26 -9 -16 -22 -28 -29 -26 -8 3 -10 -1 -6 -12 6 -15 5 -16 -12 -2 -11 9 -16
10 -11 3 5 -9 0 -13 -14 -13 -11 0 -23 -7 -26 -15 -5 -12 -10 -13 -20 -4 -11
9 -14 8 -15 -7 0 -18 -1 -18 -9 1 -5 11 -9 14 -9 7 -1 -7 -5 -11 -10 -8 -4 3
-17 -4 -27 -17 l-19 -22 23 19 c12 11 22 15 22 10 0 -14 -56 -45 -65 -36 -4 4
-2 -4 5 -18 12 -22 12 -24 -2 -12 -13 10 -18 10 -24 1 -4 -8 -3 -9 4 -5 7 4
12 2 12 -3 0 -6 -6 -11 -14 -11 -8 0 -23 -15 -35 -32 -11 -18 -21 -28 -21 -22
0 5 5 15 12 22 7 7 9 12 4 12 -12 0 -36 -27 -29 -34 4 -3 0 -6 -9 -6 -8 0 -23
-9 -33 -20 -10 -11 -14 -20 -9 -20 5 0 -4 -11 -20 -25 -16 -13 -32 -23 -36
-20 -3 2 -6 -6 -6 -18 1 -15 -5 -22 -16 -21 -9 1 -14 -4 -12 -11 3 -7 0 -16
-7 -21 -8 -5 -10 -3 -4 7 5 8 4 11 -1 6 -5 -5 -10 -13 -10 -18 -1 -5 -2 -13
-3 -19 0 -5 -7 -9 -13 -7 -7 1 -12 -4 -10 -12 2 -8 -3 -11 -12 -8 -11 4 -13 1
-9 -10 4 -11 2 -14 -5 -9 -7 4 -12 2 -12 -6 0 -9 -3 -9 -10 2 -9 13 -14 7 -11
-12 2 -14 -11 -8 -25 10 -12 15 -13 14 -8 -13 5 -26 4 -28 -8 -13 -13 17 -42
11 -38 -8 1 -5 -4 -10 -11 -13 -7 -2 -9 2 -5 10 4 8 1 6 -7 -3 -16 -20 -32
-25 -21 -6 4 7 3 8 -5 4 -6 -4 -9 -11 -7 -15 3 -4 -4 -13 -16 -20 -15 -9 -18
-10 -13 0 5 8 4 10 -4 5 -7 -4 -9 -17 -6 -29 4 -12 3 -17 -2 -12 -4 6 -14 11
-22 13 -12 3 -12 0 -1 -13 11 -13 10 -14 -5 -9 -13 5 -16 4 -11 -4 4 -7 1 -12
-8 -12 -9 0 -16 -7 -16 -16 0 -9 -5 -12 -12 -8 -7 5 -9 2 -5 -9 4 -11 2 -14
-7 -11 -8 3 -17 0 -22 -7 -5 -8 -3 -10 7 -4 11 7 12 6 2 -7 -7 -8 -9 -19 -5
-23 4 -5 -1 -5 -10 -2 -12 4 -19 -2 -27 -24 -7 -21 -15 -28 -23 -23 -8 5 -7 1
2 -11 10 -13 11 -16 2 -11 -9 5 -21 0 -35 -15 -27 -28 -31 -49 -9 -43 10 3 5
-2 -10 -11 -16 -8 -28 -18 -28 -21 0 -3 4 -3 9 0 4 3 17 -1 27 -9 18 -13 18
-14 -5 -8 -22 5 -22 4 -11 -17 7 -12 8 -20 2 -16 -5 3 -12 -3 -15 -14 -3 -13
-1 -18 6 -13 7 4 7 1 -1 -9 -9 -11 -9 -17 -2 -20 6 -2 8 -11 5 -21 -4 -9 -12
-14 -19 -10 -6 4 -3 -5 7 -20 10 -15 14 -26 10 -25 -4 1 -17 -3 -28 -9 -11 -5
-32 -10 -47 -9 -21 1 -24 -1 -16 -12 9 -10 6 -11 -16 -3 -18 8 -26 7 -26 0 0
-8 -4 -8 -14 0 -11 9 -16 9 -22 0 -5 -8 -3 -10 7 -5 8 4 6 1 -3 -7 -10 -8 -14
-18 -10 -23 4 -4 -1 -3 -10 4 -14 11 -16 10 -14 -12 2 -18 -3 -26 -18 -30 -18
-5 -19 -8 -6 -16 13 -9 13 -10 0 -11 -8 -1 -17 -1 -20 -1 -3 0 -6 -11 -6 -24
-1 -13 2 -24 6 -24 4 0 10 -7 13 -14 4 -10 1 -13 -9 -9 -14 5 -14 3 -3 -15 7
-11 18 -18 24 -15 5 3 4 0 -2 -8 -7 -7 -13 -20 -13 -29 0 -13 1 -13 10 0 5 8
10 10 10 4 0 -6 -3 -14 -7 -18 -12 -12 -12 -36 0 -37 7 0 4 -3 -5 -7 -16 -6
-16 -10 -3 -35 8 -15 10 -25 6 -22 -11 6 -36 -23 -28 -32 9 -8 -12 -45 -22
-39 -4 3 -7 -5 -6 -17 1 -12 -1 -32 -6 -43 -4 -13 -3 -26 4 -34 9 -10 9 -11
-2 -5 -11 6 -13 1 -9 -24 4 -24 1 -31 -9 -27 -8 3 -11 1 -8 -4 3 -6 14 -10 23
-11 14 0 13 -2 -3 -9 -14 -6 -15 -9 -5 -10 12 0 11 -3 -3 -11 -18 -10 -18 -12
4 -36 21 -22 22 -23 4 -17 -16 6 -18 5 -9 -7 13 -17 10 -52 -6 -57 -8 -3 -7
-8 1 -18 9 -11 9 -14 -1 -14 -9 0 -10 -4 -2 -13 6 -7 11 -22 11 -32 0 -11 2
-34 4 -52 2 -18 0 -30 -4 -27 -4 2 -10 0 -14 -6 -3 -5 0 -10 7 -10 8 0 14 -9
14 -20 0 -11 -4 -20 -9 -20 -5 0 -4 -7 3 -15 10 -12 9 -15 -6 -16 -14 -1 -13
-3 6 -9 21 -7 22 -8 5 -9 -15 -1 -17 -3 -7 -10 11 -6 10 -10 -3 -15 -13 -5
-15 -9 -6 -20 6 -7 7 -17 3 -21 -4 -5 -1 -5 5 -1 9 5 12 0 11 -18 -1 -13 -6
-22 -10 -20 -5 3 -5 11 -1 17 4 7 0 6 -10 -2 -18 -14 -23 -26 -8 -17 5 3 11
-1 15 -9 3 -8 1 -17 -5 -21 -6 -4 -3 -14 8 -27 10 -12 12 -17 4 -12 -11 6 -13
4 -8 -9 4 -10 7 -27 7 -37 0 -13 4 -18 12 -13 7 4 8 3 4 -4 -4 -7 -15 -12 -24
-12 -13 0 -13 -2 4 -15 14 -11 15 -14 4 -15 -12 0 -12 -2 -2 -9 11 -7 11 -9
-1 -14 -14 -5 -16 -34 -3 -55 4 -7 2 -12 -6 -12 -10 0 -10 -2 1 -9 10 -6 10
-10 1 -16 -9 -6 -9 -9 1 -15 10 -7 10 -11 0 -24 -10 -12 -10 -16 -2 -16 7 0
11 -8 9 -18 -2 -11 3 -26 11 -36 12 -15 12 -16 -5 -9 -17 6 -17 5 -5 -10 7 -9
17 -15 21 -12 4 3 11 -2 14 -11 3 -8 2 -12 -4 -9 -6 3 -10 1 -10 -4 0 -6 9
-11 20 -11 11 0 20 -5 20 -11 0 -5 -5 -7 -12 -3 -13 8 -3 -11 18 -36 7 -8 14
-22 16 -30 2 -8 11 -21 21 -28 14 -11 15 -17 6 -28 -10 -12 -9 -13 4 -8 12 4
15 0 13 -21 -3 -19 3 -31 20 -42 13 -8 24 -23 24 -33 0 -10 7 -23 15 -30 8 -7
12 -16 9 -21 -3 -5 3 -6 12 -2 13 5 16 3 11 -10 -4 -12 -1 -17 9 -17 12 0 15
-7 12 -29 -2 -17 -2 -28 2 -26 3 2 12 0 20 -6 12 -7 11 -9 -5 -10 -11 0 -14
-3 -7 -6 6 -2 10 -9 6 -14 -3 -5 5 -9 18 -9 18 0 20 -2 8 -10 -12 -8 -12 -10
5 -10 17 0 17 -2 5 -10 -13 -8 -12 -10 3 -10 11 0 21 -9 24 -19 3 -11 18 -25
34 -31 16 -7 29 -17 29 -22 0 -5 -5 -6 -12 -2 -6 4 -8 3 -4 -4 3 -6 15 -9 26
-7 12 2 18 0 15 -6 -4 -5 -1 -9 5 -9 7 0 10 -7 7 -14 -4 -10 -1 -13 9 -9 9 3
14 -1 14 -12 0 -9 4 -14 9 -11 8 5 19 -11 26 -36 2 -5 4 -11 5 -15 1 -5 2 -12
1 -16 -1 -5 4 -5 10 -1 9 5 10 2 6 -10 -5 -14 -3 -17 8 -12 15 5 19 -5 15 -34
-1 -12 1 -12 11 -3 10 10 16 8 31 -9 10 -12 18 -25 18 -31 0 -5 7 -7 14 -4 10
4 13 1 9 -9 -3 -8 1 -14 11 -14 9 0 16 -4 16 -10 0 -5 7 -7 15 -4 11 5 13 2 9
-10 -4 -9 -3 -16 2 -15 21 4 28 -2 14 -12 -12 -8 -9 -9 9 -4 20 6 23 4 18 -9
-5 -13 -3 -15 12 -7 21 12 32 5 24 -15 -3 -8 -2 -14 3 -13 20 3 35 -2 30 -10
-3 -5 1 -11 9 -14 10 -4 12 -1 9 11 -5 14 -4 15 5 2 6 -8 11 -24 12 -35 l0
-20 9 20 9 20 0 -20 c1 -17 3 -17 11 -5 7 11 10 11 10 2 0 -7 5 -10 12 -6 7 4
8 3 4 -5 -4 -6 0 -14 11 -18 10 -4 21 -11 25 -17 5 -7 8 -7 8 2 0 6 4 12 8 12
5 0 9 -7 9 -15 0 -8 -5 -15 -10 -15 -6 0 -7 -3 -4 -6 4 -4 15 -1 24 7 10 7 15
10 12 6 -10 -12 33 -54 49 -49 8 3 10 -2 5 -14 -5 -13 -3 -16 10 -11 11 4 17
1 17 -8 0 -8 9 -15 21 -15 11 0 17 -4 14 -10 -3 -5 0 -7 8 -4 8 3 20 -2 27
-11 7 -8 17 -15 23 -15 6 0 2 7 -9 15 -18 14 -18 14 4 8 12 -3 22 -9 22 -14 0
-5 5 -9 11 -9 16 0 39 -26 39 -45 0 -9 4 -14 9 -10 5 3 12 1 16 -4 3 -6 12 -8
20 -4 9 3 15 -1 15 -10 0 -9 5 -19 12 -23 7 -4 8 -3 4 4 -11 18 10 14 25 -5
12 -14 12 -16 0 -8 -10 5 -12 4 -7 -4 6 -9 11 -9 21 -1 10 8 15 8 20 -1 4 -6
1 -16 -6 -21 -11 -8 -10 -8 4 -4 10 3 21 6 23 6 3 0 2 6 -2 13 -6 9 -5 9 8 0
8 -7 18 -9 22 -5 4 4 6 0 4 -8 -2 -8 4 -15 12 -15 8 0 14 -6 13 -13 -2 -7 4
-9 15 -5 15 6 16 5 2 -13 -8 -10 -10 -16 -6 -12 5 4 17 -1 27 -13 12 -14 18
-16 22 -7 4 9 6 7 6 -4 1 -9 6 -20 13 -24 6 -4 8 -3 5 3 -10 15 34 8 47 -8 12
-15 27 -20 67 -22 21 -1 26 -6 23 -21 -3 -17 -2 -17 14 -3 17 15 19 15 36 -5
15 -17 20 -18 27 -7 6 10 9 10 9 2 0 -7 5 -13 11 -13 5 0 8 4 5 9 -3 4 10 1
29 -7 19 -9 35 -20 35 -24 0 -4 5 -8 11 -8 5 0 8 4 5 8 -3 5 1 9 9 9 8 0 14
-3 13 -6 -2 -25 4 -33 23 -28 17 5 18 3 7 -11 -11 -13 -11 -15 4 -9 13 4 15 2
11 -10 -4 -10 -2 -14 4 -10 6 4 13 0 17 -8 3 -8 12 -15 21 -15 8 0 15 -5 15
-11 0 -6 7 -8 16 -5 8 3 12 2 9 -3 -3 -5 -1 -12 5 -16 5 -3 10 -1 10 6 0 10 3
10 12 1 16 -16 33 -15 20 1 -8 9 -3 12 24 11 28 -2 33 1 24 11 -13 15 5 16 28
1 12 -7 12 -4 1 15 -11 22 -11 23 4 10 10 -7 17 -9 17 -4 0 19 84 6 101 -16 9
-11 20 -17 23 -13 4 3 4 -1 0 -11 -3 -9 -1 -23 5 -31 6 -7 9 -21 5 -30 -3 -9
-1 -16 6 -16 6 0 8 5 4 12 -4 7 -3 8 5 4 6 -4 9 -12 6 -17 -4 -5 -2 -9 4 -9 5
0 8 -9 6 -20 -2 -12 2 -23 11 -27 11 -4 12 -8 3 -19 -9 -12 -9 -13 3 -9 13 5
14 0 8 -33 -3 -21 -3 -49 2 -61 6 -18 5 -22 -5 -18 -8 3 -14 -1 -14 -9 0 -7 4
-11 8 -8 4 2 10 0 14 -6 3 -5 0 -10 -7 -11 -7 0 -4 -4 7 -9 18 -8 18 -9 2 -9
-10 -1 -15 -6 -12 -11 4 -6 12 -8 18 -4 7 3 4 -1 -5 -9 -14 -11 -15 -16 -5
-27 8 -9 8 -11 0 -6 -7 4 -9 -1 -6 -14 3 -11 9 -20 14 -20 5 0 9 -5 9 -11 0
-5 -4 -8 -8 -5 -4 2 -8 -4 -8 -15 0 -10 4 -19 8 -19 4 0 8 -5 8 -11 0 -5 -4
-7 -10 -4 -5 3 -10 1 -10 -4 0 -6 5 -11 11 -11 8 0 8 -4 -1 -15 -10 -11 -9
-18 4 -30 19 -20 21 -32 3 -17 -10 8 -13 6 -13 -11 0 -12 5 -25 10 -29 7 -5 3
-8 -9 -9 l-20 0 20 -9 c13 -6 15 -9 5 -9 -13 -1 -13 -2 0 -11 13 -9 13 -10 0
-10 -13 0 -13 -1 0 -10 13 -8 13 -10 -2 -10 -12 0 -15 -5 -11 -17 5 -12 3 -14
-7 -8 -10 6 -12 4 -7 -8 4 -12 1 -15 -14 -12 -17 4 -19 2 -8 -11 10 -12 9 -13
-5 -8 -12 5 -20 -3 -31 -30 -10 -23 -20 -34 -27 -30 -7 5 -9 2 -6 -8 7 -17
-27 -42 -45 -32 -7 4 -9 4 -5 -1 4 -4 0 -14 -10 -22 -9 -8 -11 -11 -3 -7 10 5
12 3 7 -5 -5 -7 -14 -10 -22 -7 -12 5 -12 2 -3 -17 10 -19 10 -20 -2 -11 -11
8 -18 6 -31 -7 -12 -12 -13 -19 -5 -23 7 -2 4 -5 -6 -5 -11 -1 -15 -5 -11 -13
5 -7 2 -9 -8 -5 -10 3 -15 0 -14 -11 0 -9 -4 -16 -11 -15 -7 2 -10 -6 -8 -19
3 -11 2 -18 -1 -15 -7 7 -50 -35 -47 -45 2 -4 -3 -5 -10 -2 -7 2 -24 -7 -36
-20 -13 -14 -27 -23 -31 -21 -4 2 -6 -7 -4 -20 1 -15 -2 -23 -8 -19 -13 8 -80
-57 -74 -73 3 -7 2 -12 -2 -12 -22 4 -31 -3 -25 -18 5 -12 3 -14 -7 -8 -10 6
-12 3 -7 -14 5 -19 3 -20 -9 -10 -8 7 -14 8 -13 3 5 -27 -2 -46 -15 -41 -10 4
-14 0 -11 -13 3 -14 -1 -17 -12 -13 -11 4 -14 2 -9 -5 4 -7 1 -12 -8 -12 -8 0
-18 -5 -22 -12 -4 -6 -3 -8 4 -4 6 3 14 1 18 -5 4 -8 3 -9 -4 -5 -7 4 -12 2
-12 -5 0 -9 -3 -9 -14 0 -12 10 -13 8 -9 -11 3 -13 2 -20 -2 -16 -7 7 -48 -46
-50 -64 0 -3 -4 -10 -9 -15 -5 -5 -6 -3 -2 4 4 7 3 13 -2 13 -6 0 -13 -7 -16
-16 -3 -9 -11 -12 -18 -8 -7 4 -10 4 -6 -1 4 -4 3 -14 -3 -22 -6 -7 -8 -13 -5
-13 4 0 2 -9 -4 -20 -7 -12 -16 -18 -23 -13 -7 4 -5 -2 3 -12 9 -11 10 -16 3
-11 -12 7 -18 -5 -14 -28 1 -5 -5 -3 -14 4 -13 11 -15 10 -10 -3 4 -8 1 -18
-4 -22 -6 -3 -9 -11 -6 -16 4 -5 -2 -6 -12 -2 -16 6 -17 5 -3 -12 8 -10 10
-16 3 -12 -7 4 -14 -1 -18 -13 -4 -11 -11 -18 -16 -15 -5 3 -6 0 -3 -8 3 -8
-2 -22 -11 -30 -8 -9 -14 -22 -13 -29 2 -7 -2 -12 -8 -11 -7 1 -11 -5 -10 -15
0 -9 -4 -16 -10 -15 -6 1 -11 -5 -11 -12 0 -13 322 -15 2409 -15 l2408 0 0
1805 c0 1264 -3 1805 -11 1805 -5 0 -7 5 -4 10 10 16 -1 11 -16 -7 -12 -14
-12 -16 0 -8 10 6 12 4 7 -4 -5 -7 -15 -10 -23 -7 -8 3 -11 1 -8 -4 3 -6 1
-10 -5 -10 -6 0 -8 -4 -5 -10 3 -6 -1 -7 -10 -4 -12 5 -14 2 -8 -12 7 -18 6
-18 -11 -1 -19 18 -31 23 -21 8 3 -5 1 -12 -5 -16 -5 -3 -10 0 -10 7 0 8 -3 9
-8 3 -4 -6 -19 -10 -34 -10 -15 1 -24 -3 -22 -7 3 -4 -2 -8 -10 -8 -9 0 -16 5
-16 10 0 6 -6 5 -14 -2 -8 -7 -12 -16 -10 -20 5 -8 -17 -5 -33 5 -8 5 -13 3
-13 -5 0 -8 -3 -9 -8 -3 -9 12 -44 16 -36 4 5 -8 -17 -14 -38 -10 -5 0 -7 -4
-5 -10 1 -6 -4 -14 -12 -17 -9 -3 -11 0 -6 8 5 9 4 11 -4 6 -9 -6 -9 -11 -1
-21 8 -10 8 -15 -1 -21 -7 -4 -9 -3 -6 3 4 6 0 14 -9 17 -8 3 -13 2 -10 -3 3
-4 -2 -17 -10 -27 -9 -10 -12 -12 -8 -4 7 13 6 13 -10 1 -9 -8 -15 -20 -12
-27 3 -8 2 -13 -2 -11 -10 3 -51 -40 -44 -47 3 -3 -2 -6 -12 -6 -10 0 -14 5
-10 12 4 6 3 8 -4 4 -6 -3 -9 -15 -7 -26 3 -17 1 -19 -16 -9 -19 10 -20 9 -8
-13 10 -20 10 -21 -2 -12 -11 9 -17 9 -26 -1 -6 -7 -9 -16 -5 -20 4 -4 -3 -3
-15 4 -19 10 -21 9 -18 -10 4 -18 2 -19 -12 -7 -15 11 -16 11 -10 -6 6 -14 4
-17 -8 -12 -8 3 -15 1 -15 -4 0 -6 -9 -10 -19 -10 -10 0 -22 -7 -25 -16 -3 -9
-13 -14 -21 -11 -9 4 -12 1 -9 -8 7 -18 -25 -13 -37 6 -6 10 -9 11 -9 1 0 -22
-43 -32 -57 -13 -12 14 -12 14 -6 -3 4 -13 3 -17 -5 -12 -7 4 -12 2 -12 -3 0
-6 -4 -11 -9 -11 -18 0 -71 -62 -64 -73 5 -9 3 -9 -8 -1 -15 11 -20 11 -56 -1
-13 -4 -20 -11 -17 -16 3 -5 0 -9 -5 -9 -6 0 -11 5 -11 11 0 5 -5 7 -10 4 -6
-4 -7 -12 -4 -18 5 -9 4 -9 -6 0 -13 12 -60 -2 -60 -19 0 -4 -7 -8 -16 -8 -8
0 -12 -4 -9 -10 3 -5 -1 -10 -10 -10 -10 0 -13 -5 -9 -12 5 -8 2 -9 -11 -4
-15 5 -16 4 -5 -9 11 -13 11 -16 -1 -13 -8 2 -13 -3 -11 -10 2 -10 -2 -10 -20
-1 -22 12 -22 11 -8 -6 9 -11 10 -16 3 -11 -7 4 -13 2 -13 -3 0 -6 -5 -11 -11
-11 -5 0 -7 4 -4 10 3 6 -1 7 -9 4 -9 -3 -14 -10 -11 -14 3 -4 -6 -7 -20 -6
-14 0 -25 3 -25 6 0 3 -9 6 -19 6 -11 0 -17 -4 -15 -8 3 -4 0 -8 -5 -8 -6 0
-11 4 -11 8 0 5 -7 9 -15 9 -9 0 -14 -6 -11 -13 5 -13 -11 -13 -31 -1 -8 5
-13 3 -13 -3 0 -6 -4 -8 -10 -5 -5 3 -10 1 -10 -5 0 -6 -4 -8 -10 -5 -6 3 -7
-1 -4 -9 3 -9 1 -16 -5 -16 -6 0 -11 5 -11 11 0 5 -5 7 -10 4 -6 -4 -8 -11 -5
-16 4 -5 -1 -9 -9 -9 -9 0 -16 -8 -16 -17 -1 -16 -2 -16 -17 2 -12 16 -14 17
-10 3 4 -11 -1 -21 -13 -28 -15 -8 -20 -6 -23 8 -4 16 -5 16 -6 -1 0 -10 -5
-15 -11 -12 -5 3 -10 2 -10 -4 0 -5 -8 -8 -17 -6 -10 2 -26 4 -36 4 -10 1 -15
6 -12 12 4 6 -2 5 -14 -3 -17 -10 -25 -10 -41 0 -17 10 -21 10 -26 -1 -6 -16
-54 -11 -54 6 0 6 -7 2 -15 -9 -8 -10 -15 -14 -14 -9 3 23 -2 27 -18 14 -11
-10 -14 -10 -9 -1 11 18 -5 15 -21 -5 -8 -10 -12 -13 -9 -6 8 15 -10 27 -19
13 -3 -5 -12 -10 -18 -10 -8 0 -7 3 2 9 9 6 4 8 -17 8 -17 -1 -28 -6 -24 -12
3 -5 -2 -4 -11 4 -13 10 -17 10 -17 1 0 -9 -4 -9 -17 1 -15 12 -16 12 -10 -3
7 -20 -8 -34 -18 -17 -4 5 -13 8 -21 5 -7 -3 -18 3 -23 12 -8 14 -11 14 -11 2
0 -9 -6 -5 -15 10 -8 14 -14 19 -15 11 0 -8 -3 -12 -6 -9 -3 4 -1 15 5 26 9
17 7 19 -14 16 -22 -2 -24 0 -14 18 7 12 7 18 1 14 -14 -9 -22 20 -9 33 7 7 7
11 1 11 -13 0 -12 52 1 63 6 6 6 10 -2 14 -7 2 -13 9 -13 14 0 6 4 8 9 4 6 -3
8 4 6 15 -6 30 -15 41 -28 33 -7 -3 -3 4 8 16 11 12 15 22 10 21 -6 -2 -16 -2
-24 -1 -11 1 -10 4 4 15 18 13 18 13 -1 25 -16 10 -16 12 -1 7 9 -3 17 -1 17
4 0 6 -6 10 -12 10 -10 0 -9 3 1 9 11 7 11 9 0 14 -10 4 -11 8 -3 14 14 10 14
43 0 43 -6 0 -4 5 4 10 12 8 12 10 -5 10 -17 0 -17 2 -5 10 13 9 13 10 0 10
-13 0 -13 1 0 10 13 9 7 14 -12 11 -5 0 -8 4 -8 10 0 7 9 9 21 6 20 -5 20 -5
4 13 -13 14 -13 19 -3 23 8 4 7 6 -4 6 -10 1 -17 4 -17 9 6 34 -3 72 -16 72
-18 0 -19 11 -2 29 7 9 7 11 1 8 -7 -4 -15 0 -18 9 -3 8 -2 13 2 10 4 -2 8 4
8 15 0 14 -6 18 -21 14 -11 -3 -15 -2 -8 1 7 3 9 13 6 22 -4 15 -3 15 7 2 10
-13 11 -12 6 3 -3 10 -6 21 -6 23 0 3 -4 3 -8 0 -4 -2 -8 4 -8 14 0 10 4 16 9
13 5 -3 7 0 5 8 -3 8 -10 13 -15 12 -5 -1 -10 5 -10 13 0 9 6 13 16 9 12 -4
12 -2 -2 9 -14 10 -15 15 -5 19 10 4 10 6 1 6 -7 1 -13 6 -13 12 0 5 4 7 10 4
6 -3 7 1 4 9 -3 9 -11 13 -18 9 -6 -4 -5 1 3 10 8 10 9 17 3 17 -6 0 -9 9 -7
20 2 11 -3 27 -11 35 -9 8 -12 20 -8 26 5 8 3 9 -6 4 -10 -6 -12 -4 -7 9 5 12
0 19 -16 26 -12 5 -17 9 -11 9 6 1 11 8 11 16 0 8 -4 12 -8 10 -4 -3 -10 2
-13 11 -4 10 -2 13 6 8 15 -9 2 13 -26 45 -12 13 -16 21 -9 18 15 -10 10 20
-7 36 -10 10 -11 9 -5 -3 5 -9 4 -12 -1 -7 -5 5 -9 14 -9 20 -1 7 -7 11 -14 9
-7 -1 -10 2 -6 7 3 6 13 7 22 4 15 -6 16 -5 3 9 -8 9 -18 14 -22 11 -5 -2 -8
1 -8 6 0 6 5 11 12 11 6 0 4 6 -7 13 -11 9 -15 19 -10 27 5 9 4 11 -3 6 -8 -5
-12 2 -12 18 0 14 -4 26 -10 26 -5 0 -10 7 -10 15 0 8 -5 15 -11 15 -5 0 -7 5
-4 10 4 6 1 9 -7 8 -7 -2 -14 7 -16 20 -2 12 -9 22 -17 22 -15 0 -28 27 -20
41 4 5 -2 6 -12 2 -15 -5 -16 -3 -5 8 6 7 12 18 12 24 0 6 -3 6 -8 -1 -5 -9
-11 -8 -20 2 -8 9 -9 14 -2 14 7 0 6 5 -2 14 -7 8 -16 12 -20 9 -4 -2 -5 3 -2
11 4 11 0 16 -12 17 -11 0 -14 3 -7 6 10 3 10 7 0 18 -7 7 -15 9 -18 3 -3 -5
-6 5 -6 22 0 20 3 26 9 18 6 -10 8 -8 8 5 0 9 -4 17 -8 17 -4 0 -8 9 -8 19 0
11 4 17 8 15 4 -3 8 0 8 5 0 6 -5 11 -11 11 -6 0 -8 9 -4 20 5 16 3 19 -12 13
-17 -6 -17 -5 1 15 18 21 18 21 -1 18 -16 -4 -19 1 -16 32 1 23 -4 43 -15 56
-9 11 -11 16 -4 12 6 -4 12 -3 12 3 0 15 -78 90 -87 82 -4 -3 -1 2 6 12 7 9 9
17 5 17 -5 0 -14 16 -20 35 -10 31 -9 34 5 23 9 -7 7 -1 -4 12 -39 47 -50 64
-37 56 17 -10 15 9 -3 27 -11 12 -12 17 -2 20 6 3 3 6 -8 6 -17 1 -17 3 -5 11
13 8 13 10 -1 10 -9 0 -23 8 -30 18 -12 15 -12 15 1 5 12 -9 15 -7 15 12 0 19
-3 21 -15 12 -8 -6 -12 -7 -8 -3 4 5 2 16 -4 24 -7 8 -13 20 -15 28 -2 8 -4
21 -6 29 -2 8 -9 21 -17 28 -12 10 -12 9 -2 -5 10 -12 10 -18 1 -24 -7 -4 -9
-3 -5 4 3 6 2 13 -2 16 -5 3 -8 17 -6 31 2 23 0 24 -14 13 -12 -10 -14 -10 -8
0 4 6 3 12 -3 12 -6 0 -8 7 -4 16 5 13 1 15 -18 10 -13 -3 -18 -3 -11 0 10 5
9 10 -4 25 -17 19 -17 20 2 14 12 -4 10 -1 -6 8 -14 9 -29 13 -35 9 -5 -3 -4
2 4 11 8 10 11 20 7 24 -3 3 -6 1 -6 -5 0 -7 -4 -12 -10 -12 -5 0 -9 3 -9 8 3
20 -2 32 -16 32 -8 0 -15 7 -15 15 0 9 -8 19 -17 22 -31 12 -43 29 -30 42 9 9
8 11 -5 6 -19 -8 -51 18 -40 31 4 5 -2 2 -12 -6 -17 -13 -18 -13 -11 -1 6 11
4 13 -8 8 -11 -4 -17 -1 -17 9 0 9 -5 12 -12 8 -6 -4 -18 2 -26 12 -12 15 -14
16 -9 2 4 -12 2 -15 -8 -11 -8 3 -12 9 -9 14 5 9 -10 13 -30 10 -5 -1 -3 5 4
14 7 9 9 15 4 13 -14 -4 -52 24 -50 36 2 6 1 8 -1 4 -8 -13 -23 -9 -23 6 0 7
-8 20 -17 27 -16 13 -17 12 -4 -4 12 -15 12 -17 -3 -11 -9 3 -16 16 -16 28 0
17 -2 18 -10 6 -7 -11 -10 -11 -10 -2 0 8 -5 10 -12 6 -8 -5 -7 0 2 11 9 11
10 16 3 11 -8 -4 -13 -2 -13 4 0 6 -4 8 -10 5 -5 -3 -10 1 -10 9 0 9 -3 16 -7
16 -5 0 -17 14 -28 30 -11 16 -24 30 -29 30 -5 0 0 -10 12 -23 12 -13 22 -27
22 -31 0 -5 -10 4 -22 20 -13 16 -22 34 -20 41 2 8 -3 10 -14 6 -11 -4 -15 -3
-11 4 9 14 -19 43 -39 43 -8 0 -13 4 -9 9 3 5 -4 12 -15 16 -13 4 -20 15 -20
31 0 14 -4 22 -10 19 -5 -3 -10 1 -10 10 0 10 5 13 13 9 8 -5 8 -2 -2 9 -15
19 -26 23 -15 5 4 -7 3 -8 -4 -4 -7 4 -12 14 -12 22 0 8 -9 14 -19 14 -11 0
-22 9 -26 19 -3 11 -19 22 -36 26 -16 4 -27 10 -25 13 2 4 -7 15 -19 25 -15
10 -26 13 -30 7 -4 -6 -11 -8 -16 -4 -5 3 -6 10 -3 16 4 7 2 8 -4 4 -6 -4 -20
2 -32 14 -11 11 -29 20 -41 20 -15 0 -19 5 -15 16 3 8 2 12 -3 9 -5 -3 -12 -1
-16 5 -3 5 -11 10 -16 10 -6 0 -7 -5 -3 -12 4 -7 3 -8 -4 -4 -6 4 -9 13 -5 21
3 9 -1 15 -9 15 -7 0 -20 9 -28 20 -11 15 -17 17 -29 7 -12 -9 -13 -9 -7 1 5
8 0 12 -16 12 -18 0 -20 2 -8 10 12 8 9 10 -13 10 -20 0 -26 4 -21 13 6 9 4 9
-8 -1 -13 -10 -18 -10 -24 -1 -4 8 -3 9 4 5 8 -5 10 -1 5 10 -5 14 -8 13 -19
-7 l-13 -24 -1 25 c-1 23 -2 23 -10 5 l-9 -20 0 20 c-1 15 -3 17 -10 6 -6 -9
-10 -10 -12 -2 -3 7 -12 13 -21 14 -9 2 -24 9 -34 17 -13 11 -15 11 -10 2z
m476 -247 c7 -9 8 -15 2 -15 -5 0 -12 7 -16 15 -3 8 -4 15 -2 15 2 0 9 -7 16
-15z m-1370 -269 c0 -2 -7 -7 -16 -10 -8 -3 -12 -2 -9 4 6 10 25 14 25 6z
m-860 -930 c0 -2 -7 -9 -15 -16 -13 -11 -14 -10 -9 4 5 14 24 23 24 12z m-49
-339 c-10 -9 -11 -8 -5 6 3 10 9 15 12 12 3 -3 0 -11 -7 -18z m3734 -565 c-3
-3 -11 0 -18 7 -9 10 -8 11 6 5 10 -3 15 -9 12 -12z m-3755 -22 c0 -5 -2 -10
-4 -10 -3 0 -8 5 -11 10 -3 6 -1 10 4 10 6 0 11 -4 11 -10z m3825 -129 c3 -5
2 -12 -3 -15 -5 -3 -9 1 -9 9 0 17 3 19 12 6z m-3815 -165 c0 -2 -7 -7 -16
-10 -8 -3 -12 -2 -9 4 6 10 25 14 25 6z m184 -502 c5 -14 4 -15 -9 -4 -17 14
-19 20 -6 20 5 0 12 -7 15 -16z m4949 -79 c-3 -9 -8 -14 -10 -11 -3 3 -2 9 2
15 9 16 15 13 8 -4z m-756 -267 c-3 -8 -6 -5 -6 6 -1 11 2 17 5 13 3 -3 4 -12
1 -19z m-2163 -1717 c3 -5 -1 -11 -9 -14 -9 -4 -12 -1 -8 9 6 16 10 17 17 5z
m-326 -351 c-7 -11 -17 -20 -22 -20 -5 0 -1 9 9 20 10 11 20 20 22 20 2 0 -2
-9 -9 -20z m-80 -80 c-7 -11 -17 -20 -22 -20 -5 0 -1 9 9 20 10 11 20 20 22
20 2 0 -2 -9 -9 -20z m-288 -350 c0 -5 -5 -10 -11 -10 -5 0 -7 5 -4 10 3 6 8
10 11 10 2 0 4 -4 4 -10z"/>
<path d="M2503 6265 c0 -8 4 -12 9 -9 5 3 6 10 3 15 -9 13 -12 11 -12 -6z"/>
<path d="M2160 6190 c-9 -6 -10 -10 -3 -10 6 0 15 5 18 10 8 12 4 12 -15 0z"/>
<path d="M4247 4829 c7 -7 15 -10 18 -7 3 3 -2 9 -12 12 -14 6 -15 5 -6 -5z"/>
<path d="M820 4200 c0 -5 5 -10 11 -10 5 0 7 5 4 10 -3 6 -8 10 -11 10 -2 0
-4 -4 -4 -10z"/>
<path d="M6060 3150 c-8 -5 -12 -12 -9 -15 4 -3 12 1 19 10 14 17 11 19 -10 5z"/>
<path d="M1300 2800 c0 -5 5 -10 11 -10 5 0 7 5 4 10 -3 6 -8 10 -11 10 -2 0
-4 -4 -4 -10z"/>
<path d="M1780 2396 c0 -2 7 -7 16 -10 8 -3 12 -2 9 4 -6 10 -25 14 -25 6z"/>
<path d="M2344 2049 c-4 -7 -3 -9 4 -5 5 3 13 0 15 -6 4 -9 6 -10 6 -1 1 17
-16 25 -25 12z"/>
<path d="M2996 1033 c-6 -14 -5 -15 5 -6 7 7 10 15 7 18 -3 3 -9 -2 -12 -12z"/>
</g>
</svg>
